<svg xmlns="http://www.w3.org/2000/svg" viewBox="0 0 1170 1560.54"><defs><style>.cls-1{fill:#b1b1b1;}.cls-2{fill:#575756;}.cls-3{fill:#bd1622;}.cls-4{font-size:14.74px;}.cls-21,.cls-23,.cls-31,.cls-35,.cls-4,.cls-59,.cls-64{font-family:MyriadPro-Regular, Myriad Pro;}.cls-5{letter-spacing:0.02em;}.cls-6{letter-spacing:0em;}.cls-7{letter-spacing:-0.01em;}.cls-8{letter-spacing:0em;}.cls-9{letter-spacing:-0.01em;}.cls-10{letter-spacing:-0.01em;}.cls-11{letter-spacing:0em;}.cls-12{letter-spacing:-0.08em;}.cls-13{letter-spacing:-0.01em;}.cls-14{letter-spacing:-0.01em;}.cls-15{letter-spacing:-0.01em;}.cls-16{letter-spacing:0em;}.cls-17{letter-spacing:0.02em;}.cls-18{letter-spacing:0em;}.cls-19{letter-spacing:-0.02em;}.cls-20{letter-spacing:0em;}.cls-21,.cls-35{font-size:21px;}.cls-22{fill:#1d70b7;}.cls-23{font-size:43.18px;}.cls-23,.cls-31,.cls-35,.cls-59,.cls-61,.cls-64{fill:#fff;}.cls-24{letter-spacing:-0.02em;}.cls-25{letter-spacing:0em;}.cls-26{letter-spacing:-0.01em;}.cls-27{letter-spacing:0.02em;}.cls-28{letter-spacing:0em;}.cls-29{letter-spacing:0.01em;}.cls-30{letter-spacing:0em;}.cls-31{font-size:22.01px;}.cls-32{letter-spacing:-0.01em;}.cls-33{letter-spacing:0.01em;}.cls-34{letter-spacing:0em;}.cls-36{letter-spacing:0em;}.cls-37{letter-spacing:-0.02em;}.cls-38{letter-spacing:-0.01em;}.cls-39{letter-spacing:0em;}.cls-40{letter-spacing:-0.01em;}.cls-41{letter-spacing:0.03em;}.cls-42{letter-spacing:0em;}.cls-43{letter-spacing:-0.01em;}.cls-44{letter-spacing:-0.01em;}.cls-45{letter-spacing:0.02em;}.cls-46{letter-spacing:-0.01em;}.cls-47{letter-spacing:0em;}.cls-48{letter-spacing:0em;}.cls-49{letter-spacing:-0.01em;}.cls-50{letter-spacing:-0.01em;}.cls-51{letter-spacing:0em;}.cls-52{letter-spacing:0em;}.cls-53{letter-spacing:0em;}.cls-54{letter-spacing:-0.02em;}.cls-55{letter-spacing:0.02em;}.cls-56{letter-spacing:-0.01em;}.cls-57{letter-spacing:0.02em;}.cls-58{fill:#b54747;}.cls-59{font-size:33.25px;}.cls-60{letter-spacing:-0.01em;}.cls-62{fill:#93c01f;}.cls-63{fill:#008d36;}.cls-64{font-size:43.68px;}.cls-65{letter-spacing:0.01em;}.cls-66{letter-spacing:-0.01em;}.cls-67{letter-spacing:0em;}.cls-68{letter-spacing:-0.01em;}.cls-69{letter-spacing:-0.03em;}.cls-70{letter-spacing:-0.01em;}.cls-71{letter-spacing:-0.01em;}.cls-72{letter-spacing:-0.01em;}.cls-73{letter-spacing:0.01em;}.cls-74{letter-spacing:-0.01em;}.cls-75{letter-spacing:-0.02em;}.cls-76{letter-spacing:0em;}</style></defs><title>Макет блоки</title><g id="header"><rect class="cls-1" width="1170" height="68.61"/><rect class="cls-2" x="15" y="7.56" width="53.5" height="53.5"/><rect class="cls-3" x="487.75" y="29.35" width="194.5" height="32.4"/><text class="cls-4" transform="translate(435.19 25.06)">СПБ, Проспе<tspan class="cls-5" x="80.03" y="0">к</tspan><tspan class="cls-6" x="87.34" y="0">т О</tspan><tspan class="cls-7" x="106.67" y="0">б</tspan><tspan class="cls-8" x="114.31" y="0">у</tspan><tspan class="cls-9" x="121.31" y="0">х</tspan><tspan x="127.92" y="0">овс</tspan><tspan class="cls-10" x="149.98" y="0">к</tspan><tspan x="156.95" y="0">ой оборны, д. 86 л</tspan><tspan class="cls-11" x="272.4" y="0">и</tspan><tspan class="cls-12" x="280.52" y="0">т</tspan><tspan x="285.45" y="0">. К</tspan></text><text class="cls-4" transform="translate(1012.71 25.06)">8(800)333-71-38</text><text class="cls-4" transform="translate(993.7 45.55)">in<tspan class="cls-13" x="11.63" y="0">f</tspan><tspan x="15.74" y="0">o@p</tspan><tspan class="cls-14" x="43.07" y="0">r</tspan><tspan x="47.75" y="0">o</tspan><tspan class="cls-15" x="55.83" y="0">f</tspan><tspan class="cls-16" x="59.95" y="0">e</tspan><tspan x="67.29" y="0">xpe</tspan><tspan class="cls-17" x="89.88" y="0">r</tspan><tspan class="cls-18" x="95.05" y="0">t</tspan><tspan x="99.85" y="0">-s</tspan><tspan class="cls-7" x="110.21" y="0">r</tspan><tspan class="cls-19" x="114.88" y="0">o</tspan><tspan class="cls-20" x="122.62" y="0">.ru</tspan></text></g><g id="menu"><rect class="cls-1" x="375" y="78.93" width="518" height="66.61"/><text class="cls-21" transform="translate(802.3 113.95) scale(0.99 1)">Меню</text><text class="cls-21" transform="translate(607.3 115.67) scale(0.99 1)">Меню</text><text class="cls-21" transform="translate(412.3 112.24) scale(0.99 1)">Меню</text></g><g id="slider"><rect class="cls-22" y="154.72" width="1170" height="438.36"/><rect class="cls-1" y="68.61" width="258" height="274.39"/><polygon class="cls-1" points="1170 315.6 1170 593.09 931.62 593.09 931.62 454.34 1050.81 454.34 1050.81 315.6 1170 315.6"/><text class="cls-23" transform="translate(406.5 230.43)">За<tspan class="cls-24" x="42.05" y="0">г</tspan><tspan class="cls-25" x="57.81" y="0">о</tspan><tspan x="81.69" y="0">ловок про </tspan><tspan class="cls-26" x="283.19" y="0">у</tspan><tspan class="cls-27" x="303.14" y="0">с</tspan><tspan class="cls-28" x="323.39" y="0">л</tspan><tspan x="345.1" y="0">у</tspan><tspan class="cls-29" x="365.44" y="0">г</tspan><tspan class="cls-30" x="382.67" y="0">у</tspan></text><text class="cls-31" transform="translate(1005.14 224.22)">10 000 <tspan class="cls-32" x="65.79" y="0">р</tspan><tspan class="cls-33" x="78.09" y="0">у</tspan><tspan class="cls-34" x="88.63" y="0">б</tspan><tspan x="100.34" y="0">лей</tspan></text><text class="cls-35" transform="translate(474.76 272.41)"><tspan xml:space="preserve"> УAлов</tspan><tspan class="cls-36" x="60.92" y="0">и</tspan><tspan class="cls-37" x="72.49" y="0">т</tspan><tspan x="80.7" y="0">е свое </tspan><tspan class="cls-38" x="142.08" y="0">р</tspan><tspan x="153.82" y="0" xml:space="preserve">уки мощные  </tspan><tspan x="-13.76" y="25.2">в</tspan><tspan class="cls-39" x="-3.26" y="25.2">д</tspan><tspan class="cls-40" x="7.79" y="25.2">о</tspan><tspan x="19.05" y="25.2">хновениев</tspan><tspan class="cls-41" x="116.91" y="25.2">к</tspan><tspan class="cls-42" x="127.53" y="25.2">ладыва</tspan><tspan class="cls-39" x="194.02" y="25.2">е</tspan><tspan x="204.45" y="25.2" xml:space="preserve">т в ваши  </tspan><tspan class="cls-43" x="15.92" y="50.4">т</tspan><tspan x="24.4" y="50.4">во</tspan><tspan class="cls-44" x="46.43" y="50.4">р</tspan><tspan x="58.17" y="50.4">ческие ин</tspan><tspan class="cls-45" x="148.68" y="50.4">с</tspan><tspan class="cls-46" x="158.42" y="50.4">т</tspan><tspan class="cls-38" x="166.91" y="50.4">р</tspan><tspan class="cls-47" x="178.64" y="50.4">у</tspan><tspan x="188.43" y="50.4">ме</tspan><tspan class="cls-48" x="212.37" y="50.4">н</tspan><tspan class="cls-43" x="223.77" y="50.4">т</tspan><tspan class="cls-42" x="232.26" y="50.4">ы, </tspan><tspan class="cls-49" x="26.96" y="75.6">к</tspan><tspan class="cls-50" x="36.9" y="75.6">о</tspan><tspan class="cls-37" x="48.26" y="75.6">т</tspan><tspan x="56.47" y="75.6">орые обесп</tspan><tspan class="cls-49" x="162.79" y="75.6">е</tspan><tspan x="173.19" y="75.6">чива</tspan><tspan class="cls-50" x="216.26" y="75.6">ю</tspan><tspan class="cls-51" x="230.89" y="75.6">т </tspan><tspan x="12.96" y="100.8">аб</tspan><tspan class="cls-49" x="34.17" y="100.8">с</tspan><tspan class="cls-52" x="43.45" y="100.8">о</tspan><tspan x="55.06" y="100.8">л</tspan><tspan class="cls-50" x="65.71" y="100.8">ю</tspan><tspan class="cls-46" x="80.35" y="100.8">т</tspan><tspan x="88.83" y="100.8">ный </tspan><tspan class="cls-49" x="130.35" y="100.8">к</tspan><tspan x="140.28" y="100.8">о</tspan><tspan class="cls-36" x="151.81" y="100.8">н</tspan><tspan class="cls-43" x="163.21" y="100.8">т</tspan><tspan class="cls-42" x="171.69" y="100.8">р</tspan><tspan class="cls-53" x="183.64" y="100.8">о</tspan><tspan x="195.26" y="100.8">ль над </tspan><tspan class="cls-54" x="-12.9" y="126">т</tspan><tspan x="-4.69" y="126">е</tspan><tspan class="cls-49" x="5.83" y="126">к</tspan><tspan class="cls-55" x="15.76" y="126">с</tspan><tspan class="cls-54" x="25.5" y="126">т</tspan><tspan x="33.71" y="126">ом. их помощью вы любым </tspan><tspan class="cls-52" x="7.41" y="151.2">э</tspan><tspan x="17.24" y="151.2">леме</tspan><tspan class="cls-36" x="62.35" y="151.2">н</tspan><tspan class="cls-56" x="73.75" y="151.2">т</tspan><tspan x="82.09" y="151.2">ам </tspan><tspan class="cls-54" x="110.08" y="151.2">т</tspan><tspan x="118.29" y="151.2" xml:space="preserve">ени,  эффе</tspan><tspan class="cls-57" x="212.35" y="151.2">к</tspan><tspan class="cls-43" x="222.77" y="151.2">т</tspan><tspan x="231.25" y="151.2">ы с </tspan></text><rect class="cls-58" x="509" y="468.84" width="198" height="51.66"/><text class="cls-59" transform="translate(523.27 500.5)">П<tspan class="cls-60" x="21.24" y="0">о</tspan><tspan x="39.26" y="0">дробнее</tspan></text><circle class="cls-61" cx="31.5" cy="552.59" r="13.25"/><circle class="cls-61" cx="64.5" cy="552.59" r="13.25"/><circle class="cls-61" cx="97.5" cy="552.59" r="13.25"/></g><g id="service_block"><rect class="cls-22" x="13.41" y="618.55" width="360" height="436.48"/><rect class="cls-62" x="403.41" y="618.55" width="363.95" height="169.18"/><rect class="cls-63" x="403.41" y="805.73" width="363.95" height="249.3"/><rect class="cls-62" x="793.41" y="936.53" width="360" height="118.49"/><rect class="cls-63" x="793.41" y="618.55" width="360" height="292"/><text class="cls-64" transform="translate(79.37 836.79)">С<tspan class="cls-65" x="25.33" y="0">к</tspan><tspan class="cls-66" x="46.69" y="0">а</tspan><tspan class="cls-67" x="67.14" y="0">ч</tspan><tspan class="cls-68" x="89.63" y="0">ат</tspan><tspan x="128.03" y="0">ь КП</tspan></text><text class="cls-64" transform="translate(425.02 722.08)"><tspan class="cls-69">С</tspan><tspan class="cls-70" x="23.89" y="0">т</tspan><tspan class="cls-71" x="41.24" y="0">ат</tspan><tspan x="79.63" y="0">ь па</tspan><tspan class="cls-72" x="155.33" y="0">р</tspan><tspan class="cls-71" x="179.84" y="0">т</tspan><tspan x="197.48" y="0">нером</tspan></text><text class="cls-64" transform="translate(453.02 936.53)"><tspan class="cls-73">К</tspan><tspan x="24.2" y="0">а</tspan><tspan class="cls-74" x="45.25" y="0">к</tspan><tspan x="65.91" y="0">ой </tspan><tspan class="cls-75" x="123.35" y="0">т</tspan><tspan x="140.43" y="0">о </tspan><tspan class="cls-76" x="173.68" y="0">б</tspan><tspan x="196.91" y="0">лок</tspan></text><text class="cls-64" transform="translate(841.43 1004.53)"><tspan class="cls-73">К</tspan><tspan x="24.2" y="0">а</tspan><tspan class="cls-74" x="45.25" y="0">к</tspan><tspan x="65.91" y="0">ой </tspan><tspan class="cls-75" x="123.35" y="0">т</tspan><tspan x="140.43" y="0">о </tspan><tspan class="cls-76" x="173.68" y="0">б</tspan><tspan x="196.91" y="0">лок</tspan></text><text class="cls-64" transform="translate(841.43 764.81)"><tspan class="cls-73">К</tspan><tspan x="24.2" y="0">а</tspan><tspan class="cls-74" x="45.25" y="0">к</tspan><tspan x="65.91" y="0">ой </tspan><tspan class="cls-75" x="123.35" y="0">т</tspan><tspan x="140.43" y="0">о </tspan><tspan class="cls-76" x="173.68" y="0">б</tspan><tspan x="196.91" y="0">лок</tspan></text></g></svg>